<svg width="329" height="141" viewBox="0 0 329 141" fill="none" xmlns="http://www.w3.org/2000/svg">
<path d="M1 136.343L8.73883 126.534C9.50768 125.56 10.9692 125.514 11.7979 126.438L15.2542 130.292C15.9541 131.072 17.1378 131.18 17.9669 130.539L35.3464 117.095C36.1989 116.435 37.4205 116.57 38.109 117.399L49.171 130.723C50.2357 132.006 52.31 131.5 52.6642 129.871L60.1841 95.286C60.2676 94.9021 60.4622 94.5513 60.7438 94.2774L68.2889 86.9374C68.6622 86.5742 69.1626 86.371 69.6835 86.371H73.7874C73.9985 86.371 74.2083 86.3375 74.4089 86.2719L83.6505 83.2503C83.7785 83.2084 83.9019 83.1537 84.0189 83.0871L109.672 68.4735C109.939 68.3211 110.168 68.109 110.34 67.8536L121.208 51.7319C121.269 51.6414 121.338 51.556 121.413 51.4766L126.355 46.244C127.349 45.1911 129.098 45.5114 129.655 46.8483L135.663 61.2719C136.191 62.5408 137.813 62.9107 138.839 61.9965L158.171 44.7803C158.71 44.3007 159.465 44.1482 160.147 44.3811L202.489 58.8337C203.135 59.0542 203.849 58.9301 204.383 58.5045L214.042 50.7992C214.569 50.3793 215.271 50.2525 215.911 50.4617L224.046 53.1214C224.422 53.2445 224.753 53.4763 224.998 53.7877L227.114 56.4846C227.766 57.3156 228.952 57.4962 229.822 56.897L261.219 35.2688C262.086 34.6719 263.267 34.8485 263.921 35.6728L275.261 49.9678C275.967 50.8567 277.269 50.9815 278.13 50.2428L291.97 38.3715L328 10.8679" stroke="#474747" stroke-linejoin="round"/>
<path d="M1.48523 138.657L6.99042 130.104C7.54586 129.241 8.66438 128.938 9.57911 129.403L16.5545 132.952C17.4407 133.403 18.5236 133.135 19.0963 132.322L33.951 111.242C34.8336 109.989 36.7389 110.154 37.3939 111.539L49.6128 137.379C50.3177 138.87 52.4224 138.915 53.1906 137.456L62.4403 119.885C62.5915 119.598 62.6705 119.278 62.6705 118.953V93.1019C62.6705 91.9973 63.566 91.1019 64.6705 91.1019H71.0326C71.8547 91.1019 72.5931 91.605 72.8939 92.3701L73.689 94.3926C74.0933 95.4212 75.2555 95.9269 76.2838 95.5215L82.8145 92.9472C83.1554 92.8128 83.4529 92.5873 83.6744 92.2953L112.777 53.9333C113.334 53.1991 114.321 52.9405 115.166 53.3071L121.449 56.0315C121.7 56.1404 121.971 56.1966 122.245 56.1966H128.514C129.364 56.1966 130.122 56.7342 130.402 57.5368L136.858 76.0126C137.29 77.249 138.774 77.7433 139.861 77.013L165.544 59.7598C166.033 59.4315 166.642 59.3352 167.208 59.4967L201.646 69.3192C202.586 69.5873 203.582 69.1365 204.001 68.2532L214.737 45.6261C215.068 44.9282 215.772 44.4834 216.544 44.4834H226.887C227.781 44.4834 228.566 45.0769 228.81 45.937L234.017 64.2672C234.127 64.6561 234.353 65.0025 234.664 65.2605L242.576 71.8187C243.29 72.4108 244.318 72.4339 245.058 71.8742L254.019 65.0998C254.225 64.9443 254.398 64.7505 254.53 64.529L264.622 47.6089C265.43 46.2542 267.415 46.3243 268.126 47.7325L274.32 60.0107C274.72 60.8046 275.597 61.2387 276.471 61.0762L285.462 59.4054C286.022 59.3014 286.51 58.9641 286.806 58.4778L291.452 50.8324C291.556 50.6613 291.685 50.5067 291.835 50.3739L311.471 32.982C311.657 32.8167 311.811 32.6181 311.925 32.3963L328 1" stroke="#00A4B8" stroke-linejoin="round"/>
</svg>
